<?xml version="1.0" encoding="utf-8"?>
<!-- Generator: Adobe Illustrator 19.2.0, SVG Export Plug-In . SVG Version: 6.00 Build 0)  -->
<svg version="1.1" id="Layer_1" xmlns="http://www.w3.org/2000/svg" xmlns:xlink="http://www.w3.org/1999/xlink" x="0px" y="0px"
	 viewBox="0 0 100 100" style="enable-background:new 0 0 100 100;" xml:space="preserve">
<style type="text/css">
	.st0{fill:#F39122;}
	.st1{opacity:0.65;enable-background:new    ;}
	.st2{fill:#B3B3B3;}
	.st3{fill:#E6E6E6;}
	.st4{fill:#999999;}
	.st5{fill:#CCCCCC;}
	.st6{fill:#86CBCC;}
	.st7{enable-background:new    ;}
	.st8{fill:#FD6120;}
</style>
<g>
	<path class="st0" d="M78,98.5H22c-4.6,0-8.3-3.7-8.3-8.3V11c0-4.6,3.7-8.3,8.3-8.3h56c4.6,0,8.3,3.7,8.3,8.3v79.2
		C86.3,94.8,82.6,98.5,78,98.5z"/>
	<path class="st1" d="M78,98.5H22c-4.6,0-8.3-3.7-8.3-8.3V11c0-4.6,3.7-8.3,8.3-8.3h56c4.6,0,8.3,3.7,8.3,8.3v79.2
		C86.3,94.8,82.6,98.5,78,98.5z"/>
	<path class="st1" d="M80.2,94.8H19.8c-1.6,0-3-0.7-4.1-1.6c-0.5-0.5-1.2-0.8-2-0.8l0,0c0,3.4,2.7,6,6.1,6h60.5c3.4,0,6.1-2.6,6.1-6
		l0,0c-0.7,0-1.4,0.3-2,0.8C83.2,94.2,81.8,94.8,80.2,94.8z"/>
	<rect x="28.8" y="2.7" class="st2" width="42.3" height="4.8"/>
	<polygon class="st3" points="72.4,77.5 64.5,85.4 19.7,85.4 19.7,10.3 80.3,10.3 80.3,69.5 	"/>
	<path class="st4" d="M50,18.2c-1.8,0-3.4-0.8-4.5-2.3c-0.9-1.3-2.4-2-3.9-2H28.9c-2.6,0-4.8-2.1-4.8-4.8c0-2.6,2.2-4.8,4.8-4.8H71
		c2.6,0,4.8,2.2,4.8,4.8s-2.1,4.8-4.8,4.8H58.4c-1.5,0-3,0.8-3.9,2C53.4,17.4,51.8,18.2,50,18.2z M29,6.7c-1.3,0-2.4,1.1-2.4,2.4
		s1.1,2.4,2.4,2.4h12.7c2.3,0,4.5,1.1,5.9,3c0.6,0.8,1.5,1.3,2.5,1.3s2-0.5,2.5-1.3c1.4-1.9,3.5-3,5.9-3h12.7c1.3,0,2.4-1.1,2.4-2.4
		c0-1.4-1.1-2.4-2.4-2.4C71.2,6.7,29,6.7,29,6.7z"/>
	<polygon class="st5" points="79.9,69.5 64,85.4 64,69.5 	"/>
	<circle class="st0" cx="33.8" cy="30.9" r="4.3"/>
	<circle class="st0" cx="65.5" cy="45.6" r="6.7"/>
	<circle class="st6" cx="39.5" cy="66.2" r="4.7"/>
	<g>
		<path class="st0" d="M48.8,67h-2.4c-0.4,0-0.7-0.1-0.7-0.5S46,66,46.4,66H48V46.9l-8.4-8.4c-0.3-0.3-0.3-0.7,0-1s0.7-0.3,1,0
			l8.4,8.6c0.1,0.1,0,0.3,0,0.5v20C49,67.1,49.2,67,48.8,67z"/>
		<g>
			<g>
				<path class="st0" d="M45.3,38L45.3,38c0,0.3-0.2,0.5-0.5,0.5l-4.4-0.2l0.2,4.4c0,0.3-0.2,0.5-0.5,0.5l0,0
					c-0.3,0-0.5-0.2-0.5-0.5l-0.2-4.8c0-0.4,0.3-0.6,0.6-0.6l4.8,0.2C45.1,37.5,45.3,37.7,45.3,38z"/>
				<path class="st0" d="M40.1,43.4c-0.4,0-0.7-0.3-0.7-0.7l-0.2-4.8c0-0.2,0.1-0.5,0.2-0.6c0.2-0.2,0.4-0.3,0.6-0.2l4.8,0.2
					c0.4,0,0.7,0.4,0.7,0.8l0,0c0,0.2-0.1,0.4-0.2,0.5c-0.1,0.1-0.3,0.2-0.5,0.2l-4.1-0.1l0.2,4.1c0,0.2-0.1,0.4-0.2,0.5
					C40.5,43.3,40.3,43.4,40.1,43.4L40.1,43.4z M40,37.5c-0.1,0-0.2,0-0.3,0.1s-0.1,0.2-0.1,0.3l0.2,4.8c0,0.1,0.1,0.3,0.3,0.2
					c0.1,0,0.1,0,0.2-0.1c0-0.1,0.1-0.1,0.1-0.2L40.2,38l4.6,0.2c0.1,0,0.1,0,0.2-0.1c0.1,0,0.1-0.1,0.1-0.2l0,0
					c0-0.1-0.1-0.3-0.3-0.3L40,37.5L40,37.5z"/>
			</g>
		</g>
	</g>
	<g class="st7">
		<path class="st8" d="M31.9,55.5l2.1-2.6l-2-2.4c-0.1-0.2-0.3-0.4-0.3-0.6c0-0.5,0.4-0.8,0.8-0.8c0.4,0,0.6,0.1,0.8,0.4l1.7,2.2
			l1.7-2.2c0.2-0.3,0.5-0.5,0.8-0.5s0.8,0.3,0.8,0.8c0,0.2-0.1,0.4-0.3,0.7l-2,2.4l2.1,2.5c0.1,0.2,0.3,0.4,0.3,0.6
			c0,0.5-0.4,0.8-0.8,0.8c-0.4,0-0.6-0.1-0.8-0.4l-1.8-2.4l-1.8,2.3c-0.2,0.3-0.5,0.5-0.8,0.5s-0.8-0.3-0.8-0.8
			C31.7,55.9,31.8,55.7,31.9,55.5z"/>
	</g>
	<g class="st7">
		<path class="st8" d="M49.6,33l2.1-2.6l-2-2.4c-0.1-0.2-0.3-0.4-0.3-0.6c0-0.5,0.4-0.8,0.8-0.8c0.4,0,0.6,0.1,0.8,0.4l1.7,2.2
			l1.7-2.2c0.2-0.3,0.5-0.5,0.8-0.5s0.8,0.3,0.8,0.8c0,0.2-0.1,0.4-0.3,0.7l-2,2.4l2.1,2.5c0.1,0.2,0.3,0.4,0.3,0.6
			c0,0.5-0.4,0.8-0.8,0.8c-0.4,0-0.6-0.1-0.8-0.4l-1.8-2.4L50.9,34c-0.2,0.3-0.5,0.5-0.8,0.5s-0.8-0.3-0.8-0.8
			C49.3,33.5,49.4,33.3,49.6,33z"/>
	</g>
	<g>
		<path class="st0" d="M65.5,67h-11c-0.4,0-0.7-0.1-0.7-0.5s0.3-0.5,0.7-0.5H65v-8.7c0-0.4,0.6-0.7,1-0.7s0,0.3,0,0.7v9.4
			C66,67.1,65.9,67,65.5,67z"/>
		<g>
			<g>
				<path class="st0" d="M69.2,60.9L69.2,60.9c-0.2,0.2-0.5,0.2-0.7,0l-3-3.2l-3,3.2c-0.2,0.2-0.5,0.2-0.7,0l0,0
					c-0.2-0.2-0.2-0.5,0-0.7l3.2-3.4c0.3-0.3,0.8-0.3,1.1,0l3.2,3.4C69.4,60.4,69.4,60.7,69.2,60.9z"/>
				<path class="st0" d="M62.2,61.3c-0.2,0-0.4-0.1-0.5-0.2c-0.3-0.3-0.3-0.7,0-1l3.2-3.4c0.2-0.2,0.5-0.3,0.7-0.3l0,0
					c0.3,0,0.5,0.1,0.7,0.3l3.2,3.4c0.3,0.3,0.3,0.8,0,1l0,0c-0.3,0.3-0.8,0.3-1,0l-2.8-3l-2.8,3C62.6,61.2,62.4,61.3,62.2,61.3
					L62.2,61.3z M65.5,57.3l3.2,3.4c0,0.1,0.1,0.1,0.2,0.1s0.1,0,0.2-0.1s0.1-0.3,0-0.4L65.9,57c-0.1-0.1-0.2-0.2-0.4-0.2l0,0
					c-0.1,0-0.3,0.1-0.4,0.2L62,60.4c-0.1,0.1-0.1,0.3,0,0.4c0.1,0,0.1,0.1,0.2,0.1c0.1,0,0.1,0,0.2-0.1L65.5,57.3z"/>
			</g>
		</g>
	</g>
</g>
</svg>
