<svg xmlns="http://www.w3.org/2000/svg" xmlns:xlink="http://www.w3.org/1999/xlink" viewBox="0 0 332.09 41.01"><defs><clipPath id="clip-path" transform="translate(0 0)"><rect width="332.09" height="41.01" style="fill:none"/></clipPath></defs><title>cm-logo</title><g id="Layer_2" data-name="Layer 2"><g id="Layer_1-2" data-name="Layer 1"><g style="clip-path:url(#clip-path)"><path d="M6.3,8.29c-5,10.75,4.07,17.17,4.07,17.17A16.87,16.87,0,0,1,4.7,28.9l.12.37S17,26.5,18.16,16.47A12,12,0,0,1,23,19.7l.17-.23c-6.51-9.16-16.94-5.2-16.94-5.2a15.33,15.33,0,0,1,.42-6ZM3.39,32.62s-7.71-12,.12-27.33c0,0,15.34.18,23.4,13.66,0,0-7.38,13.34-23.52,13.67" transform="translate(0 0)" style="fill:#fff"/><path d="M37.7,15.52h2.57c.84,0,2.79.21,2.79,2.15,0,1.32-1.13,2.17-2.89,2.17H37.7Zm2.64-1.79h-4a.52.52,0,0,0-.52.52V25.19a.52.52,0,0,0,.52.52h.81a.52.52,0,0,0,.52-.52V21.63h2.43c2.86,0,4.79-1.61,4.79-4s-1.8-3.87-4.58-3.87" transform="translate(0 0)" style="fill:#fff"/><path d="M52.29,15.52h3.22c.79,0,2.62.18,2.62,1.9,0,1.46-1.44,2-2.67,2H52.29Zm4.89,5.34a3.51,3.51,0,0,0,2.8-3.5A3.42,3.42,0,0,0,59,15a4.8,4.8,0,0,0-3.45-1.23H51a.52.52,0,0,0-.52.52V25.19a.52.52,0,0,0,.52.52h.81a.52.52,0,0,0,.52-.52v-4h2.8l3.33,4.33a.52.52,0,0,0,.41.2h1a.52.52,0,0,0,.41-.84Z" transform="translate(0 0)" style="fill:#fff"/><path d="M74.27,23.92H67.74V20.57h5.75A.52.52,0,0,0,74,20v-.75a.52.52,0,0,0-.52-.52H67.74V15.52h6.45a.52.52,0,0,0,.52-.52v-.75a.52.52,0,0,0-.52-.52H66.41a.52.52,0,0,0-.52.52V25.19a.52.52,0,0,0,.52.52h7.86a.52.52,0,0,0,.52-.52v-.75a.52.52,0,0,0-.52-.52" transform="translate(0 0)" style="fill:#fff"/><path d="M91.34,13.72h-.77a.52.52,0,0,0-.43.23l-4,5.84-4-5.84a.52.52,0,0,0-.43-.23H81a.52.52,0,0,0-.52.52V25.19a.52.52,0,0,0,.52.52h.78a.52.52,0,0,0,.52-.52V17.36l3.38,4.92a.61.61,0,0,0,.92,0L90,17.36v7.83a.52.52,0,0,0,.52.52h.81a.52.52,0,0,0,.52-.52V14.24a.52.52,0,0,0-.52-.52" transform="translate(0 0)" style="fill:#fff"/><path d="M99.66,13.72h-.81a.52.52,0,0,0-.52.52V25.19a.52.52,0,0,0,.52.52h.81a.52.52,0,0,0,.52-.52V14.24a.52.52,0,0,0-.52-.52" transform="translate(0 0)" style="fill:#fff"/><path d="M115,23.92H108.5V20.57h5.75a.52.52,0,0,0,.52-.52v-.75a.52.52,0,0,0-.52-.52H108.5V15.52H115a.52.52,0,0,0,.52-.52v-.75a.52.52,0,0,0-.52-.52h-7.78a.52.52,0,0,0-.52.52V25.19a.52.52,0,0,0,.52.52H115a.52.52,0,0,0,.52-.52v-.75a.52.52,0,0,0-.52-.52" transform="translate(0 0)" style="fill:#fff"/><path d="M123.12,15.52h3.21c.79,0,2.62.18,2.62,1.9,0,1.46-1.44,2-2.67,2h-3.17Zm8,9.35-3.1-4a3.51,3.51,0,0,0,2.8-3.5,3.41,3.41,0,0,0-1-2.4,4.8,4.8,0,0,0-3.45-1.23h-4.6a.52.52,0,0,0-.52.52V25.19a.52.52,0,0,0,.52.52h.81a.52.52,0,0,0,.52-.52v-4h2.8l3.33,4.33a.52.52,0,0,0,.41.2h1a.52.52,0,0,0,.41-.84" transform="translate(0 0)" style="fill:#fff"/><path d="M328.12,14.9h4V13.67h-9.28V14.9h4V25.48h1.35ZM319,23.14l-7.44-9.47h-1.25V25.48h1.3V15.79l7.63,9.69h1.06V13.67H319Zm-11.46-9.47H299V25.48h8.62V24.27h-7.29V20.13h6.45V18.92h-6.45v-4h7.21Zm-13.21,2.24v9.57h1.33V13.67h-1.35L290,20.12l-4.3-6.45h-1.35V25.48h1.3V15.93l4.3,6.31H290ZM281.6,13.67h-8.54V25.48h8.62V24.27h-7.29V20.13h6.45V18.92h-6.45v-4h7.21ZM270.05,23.88V19.17h-4.88v1.2h3.6v2.94a5.57,5.57,0,0,1-3.41,1.18c-2.87,0-4.68-2.09-4.68-4.93a4.62,4.62,0,0,1,4.49-4.86,5,5,0,0,1,3.6,1.35l.86-1a6.23,6.23,0,0,0-4.41-1.57,5.93,5.93,0,0,0-5.92,6.13,5.8,5.8,0,0,0,6,6.09,7.15,7.15,0,0,0,4.74-1.8m-15.2-2.72h-5.38l2.7-6Zm-2-7.58h-1.25l-5.38,11.9h1.37l1.4-3.12h6.43l1.38,3.12h1.43Zm-10.26,9.55-7.44-9.47h-1.25V25.48h1.3V15.79l7.63,9.69h1.06V13.67h-1.3Zm-14.36-2H222.8l2.7-6Zm-2-7.58h-1.25l-5.38,11.9h1.37l1.4-3.12h6.43l1.38,3.12h1.43Zm-10.29,2.33v9.57h1.33V13.67h-1.35l-4.3,6.45-4.31-6.45h-1.35V25.48h1.3V15.93l4.31,6.31h.07Zm-21.5-1h4V13.67H189V14.9h4V25.48h1.35Zm-14,1.72c0-1.08,1-1.92,2.52-1.92A5.19,5.19,0,0,1,186.28,16l.78-1a6.17,6.17,0,0,0-4.15-1.45c-2.25,0-3.88,1.35-3.88,3.24s1.25,2.84,4,3.43c2.48.52,3.07,1.15,3.07,2.26s-1,2-2.63,2a5.61,5.61,0,0,1-4-1.67l-.83,1a6.9,6.9,0,0,0,4.82,1.89c2.35,0,4-1.31,4-3.36,0-1.82-1.21-2.79-3.85-3.36s-3.21-1.18-3.21-2.31m-5.14,3a4.65,4.65,0,0,1-4.63,4.86,4.7,4.7,0,0,1-4.66-4.89,4.65,4.65,0,0,1,4.63-4.86,4.7,4.7,0,0,1,4.66,4.89m1.38,0a6,6,0,1,0-12,0,6,6,0,1,0,12,0m-13.52,4.05-.88-.86a5.13,5.13,0,0,1-3.81,1.7,4.67,4.67,0,0,1-4.57-4.89,4.63,4.63,0,0,1,4.57-4.86,5.14,5.14,0,0,1,3.71,1.62l.91-1a6.15,6.15,0,0,0-4.61-1.87,5.94,5.94,0,0,0-6,6.12,5.89,5.89,0,0,0,5.92,6.09,6.15,6.15,0,0,0,4.73-2.07" transform="translate(0 0)" style="fill:#f6b332"/><line x1="142.78" x2="142.78" y2="41.01" style="fill:none;stroke:#88c097;stroke-width:0.430999994277954px"/></g></g></g></svg>