<?xml version="1.0" encoding="utf-8"?>
<!-- Generator: Adobe Illustrator 19.2.0, SVG Export Plug-In . SVG Version: 6.00 Build 0)  -->
<svg version="1.1" id="Layer_1" xmlns="http://www.w3.org/2000/svg" xmlns:xlink="http://www.w3.org/1999/xlink" x="0px" y="0px"
	 viewBox="0 0 100 100" style="enable-background:new 0 0 100 100;" xml:space="preserve">
<style type="text/css">
	.st0{fill:#FFFFFF;}
</style>
<path class="st0" d="M21.3,42.6c-0.6-0.6-1-1.4-1-2.3s0.3-1.6,1-2.3c0.6-0.6,1.4-1,2.3-1c0.8,0,1.6,0.3,2.3,1l24.4,24.4l24.4-24.4
	c0.6-0.6,1.4-1,2.3-1c0.8,0,1.6,0.3,2.3,1c1.3,1.3,1.3,3.3,0,4.5L50.2,71.5L21.3,42.6z"/>
<path class="st0" d="M50,98.8C23.1,98.8,1.2,76.9,1.2,50S23.1,1.2,50,1.2S98.8,23.1,98.8,50S76.9,98.8,50,98.8z M50,6.2
	C25.8,6.2,6.2,25.8,6.2,50S25.8,93.8,50,93.8S93.8,74.2,93.8,50S74.2,6.2,50,6.2z"/>
</svg>
