<?xml version="1.0" encoding="utf-8"?>
<!-- Generator: Adobe Illustrator 19.2.0, SVG Export Plug-In . SVG Version: 6.00 Build 0)  -->
<svg version="1.1" id="Layer_1" xmlns="http://www.w3.org/2000/svg" xmlns:xlink="http://www.w3.org/1999/xlink" x="0px" y="0px"
	 viewBox="0 0 100 100" style="enable-background:new 0 0 100 100;" xml:space="preserve">
<style type="text/css">
	.st0{fill:#FFC823;}
	.st1{opacity:0.25;}
	.st2{fill:#FFFFFF;}
	.st3{fill:#808080;}
	.st4{fill:#4D4D4D;}
</style>
<path class="st0" d="M76,30.1C76,15.5,64.1,3.6,49.4,3.7C35.1,3.7,23.4,15.4,23.2,29.7c-0.1,6.3,2,12.1,5.6,16.7
	c3.8,4.9,5.8,10.9,5.8,17.1v0.1c0,8.3,6.7,15.1,15.1,15.1h0c8.3,0,15.1-6.8,15.1-15.1v-0.4c0-6.1,2.1-12.1,5.9-16.9
	C74,41.8,76,36.2,76,30.1z"/>
<g class="st1">
	<path class="st2" d="M49.3,3.7c-0.1,0-0.3,0-0.3,0v75c0,0,0.5,0,0.7,0C58,78.7,65,71.9,65,63.6v-0.4c0-6.1,2-12.1,5.7-16.9
		c3.4-4.5,5.4-10.1,5.4-16.1C76.1,15.5,64,3.6,49.3,3.7z"/>
	<path class="st2" d="M49.6,78.7C49.6,78.7,49.6,78.7,49.6,78.7C49.6,78.7,49.6,78.7,49.6,78.7L49.6,78.7z"/>
</g>
<path class="st3" d="M49.2,97.3L49.2,97.3c-7,0-12.6-5.7-12.6-12.6V72.1h25.3v12.6C61.9,91.7,56.2,97.3,49.2,97.3z"/>
<path class="st4" d="M62,77.3H36.5c-1,0-1.8-0.8-1.8-1.8v-2.8c0-1,0.8-1.8,1.8-1.8H62c1,0,1.8,0.8,1.8,1.8v2.8
	C63.8,76.5,63,77.3,62,77.3z"/>
<path class="st4" d="M62,84.3H36.5c-1,0-1.8-0.8-1.8-1.8v-2.8c0-1,0.8-1.8,1.8-1.8H62c1,0,1.8,0.8,1.8,1.8v2.8
	C63.8,83.5,63,84.3,62,84.3z"/>
<path class="st4" d="M62,91.5H36.5c-1,0-1.8-0.8-1.8-1.8v-2.8c0-1,0.8-1.8,1.8-1.8H62c1,0,1.8,0.8,1.8,1.8v2.8
	C63.8,90.7,63,91.5,62,91.5z"/>
</svg>
