<?xml version="1.0" encoding="utf-8"?>
<!-- Generator: Adobe Illustrator 19.2.0, SVG Export Plug-In . SVG Version: 6.00 Build 0)  -->
<svg version="1.1" id="Layer_1" xmlns="http://www.w3.org/2000/svg" xmlns:xlink="http://www.w3.org/1999/xlink" x="0px" y="0px"
	 viewBox="0 0 100 100" style="enable-background:new 0 0 100 100;" xml:space="preserve">
<style type="text/css">
	.st0{fill:#FFC823;}
	.st1{fill:#FD6120;}
	.st2{fill:#FFD88A;}
	.st3{opacity:0.2;}
	.st4{fill:#3C2D1E;}
	.st5{fill:#FFFFFF;}
	.st6{fill:#8EC3D7;}
	.st7{fill:#2D1D11;}
</style>
<g>
	<circle class="st0" cx="50" cy="50" r="7.8"/>
	<path class="st1" d="M50,99C23,99,1,77,1,50C1,23,23,1,50,1c27,0,49,22,49,49C99,77,77,99,50,99z"/>
	<g>
		<path class="st2" d="M50,8.1C26.9,8.1,8.1,26.9,8.1,50c0,23.1,18.8,41.9,41.9,41.9c23.1,0,41.9-18.8,41.9-41.9
			C91.9,26.9,73.1,8.1,50,8.1z M50,84.9c-19.2,0-34.9-15.6-34.9-34.9c0-19.2,15.6-34.9,34.9-34.9c19.2,0,34.9,15.6,34.9,34.9
			C84.9,69.2,69.2,84.9,50,84.9z"/>
		<path class="st2" d="M50,22.2c-15.3,0-27.8,12.5-27.8,27.8c0,15.3,12.5,27.8,27.8,27.8c15.3,0,27.8-12.5,27.8-27.8
			C77.8,34.7,65.3,22.2,50,22.2z M50,71.9c-12.1,0-21.9-9.8-21.9-21.9c0-12.1,9.8-21.9,21.9-21.9c12.1,0,21.9,9.8,21.9,21.9
			C71.9,62.1,62.1,71.9,50,71.9z"/>
		<path class="st2" d="M50,35.2c-8.2,0-14.8,6.7-14.8,14.8S41.8,64.8,50,64.8c8.2,0,14.8-6.7,14.8-14.8S58.2,35.2,50,35.2z M50,57.8
			c-4.3,0-7.8-3.5-7.8-7.8c0-4.3,3.5-7.8,7.8-7.8c4.3,0,7.8,3.5,7.8,7.8C57.8,54.3,54.3,57.8,50,57.8z"/>
	</g>
	<path class="st3" d="M96.2,34.7L83,31.8l2.9-1.8c1-0.7,1.3-2,0.7-3.1c-0.7-1-2-1.3-3.1-0.7L80.8,28l2.9-12.9L65.8,26.5l-2.9,12.9
		l-14.4,9.2c-1,0.7-1.3,2-0.7,3.1l0,0l0,0l0,0c0.1,0.1,0.2,0.2,0.3,0.4c0.1,0.1,0.2,0.2,0.3,0.3c0.2,0.2,0.5,0.3,0.8,0.3
		c0.1,0,0.3,0,0.4,0.1c0.4,0,0.9-0.1,1.3-0.3l14.3-9.1l13.1,2.9L96.2,34.7z"/>
	<path class="st4" d="M80.6,19.5c0.9,0.9,0.9,2.3,0,3.1L51.3,52c-0.9,0.9-2.3,0.9-3.1,0l0,0c-0.9-0.9-0.9-2.3,0-3.1l29.3-29.3
		C78.4,18.7,79.8,18.7,80.6,19.5L80.6,19.5z"/>
	<polygon class="st5" points="75.2,21.8 75.2,8.6 60.2,23.6 60.2,36.8 	"/>
	<polygon class="st6" points="78.2,25.1 91.7,25.1 76.7,40.1 63.3,40.1 	"/>
	<path class="st7" d="M51.3,52l29.3-29.3c0.9-0.9,0.9-2.3,0-3.1L48.2,52C49,52.9,50.4,52.9,51.3,52z"/>
</g>
</svg>
