<?xml version="1.0" encoding="utf-8"?>
<!-- Generator: Adobe Illustrator 19.2.0, SVG Export Plug-In . SVG Version: 6.00 Build 0)  -->
<svg version="1.1" id="Layer_1" xmlns="http://www.w3.org/2000/svg" xmlns:xlink="http://www.w3.org/1999/xlink" x="0px" y="0px"
	 viewBox="0 0 100 100" style="enable-background:new 0 0 100 100;" xml:space="preserve">
<style type="text/css">
	.st0{fill:#C9A273;}
	.st1{fill:#E7BE86;}
	.st2{fill:#FFFFFF;}
	.st3{fill:#2D5872;}
	.st4{fill:#A7DAE9;}
	.st5{fill:#0F303F;}
</style>
<path class="st0" d="M67.8,42.9c-0.1,0-0.3,0-0.4,0l0,0l-1-0.1c-0.3,0-0.6,0-0.8,0l-15.6-5.7c-0.2,0-6.1,0.6-6.1,0.6L37,42.4
	L26.3,58.3L21,62.8l13.6,16.1l20-16.9c4.5,0.2,10.7,0.5,11.6,0.6c1.3,0.1,2.5-0.4,2.6-2.2c0.1-1.8-1.4-2-1.5-2.1
	c-0.1-0.1-0.4-0.1-0.4-0.4c0-0.3,0.4-0.4,0.8-0.4c0.3,0,2.1-0.3,2.2-2.1c0.1-1.8-1.9-2.1-2.1-2.1c-0.2,0-0.7-0.1-0.7-0.5
	c0-0.4,0.7-0.4,1.4-0.4c0.6,0,2.5-0.2,2.6-2.2c0.1-2-2.3-2-2.8-2.1c-0.5,0-1,0-0.9-0.5c0-0.4,0.9-0.3,1.2-0.3c0,0,1.8,0,1.9-2
	C70.3,43.3,68.7,43,67.8,42.9z"/>
<path class="st1" d="M76.4,38.2L73.1,41l-5.7,0.9c0,0-6,3.8-11.5,1.5c-5.5-2.3-7.9-3.1-7.9-3.1l-9,5.3L36,55.2c0,0-1.8,5-7,5.1
	c0.8-6.5,2.6-19.8,2.6-19.8L45,29.3l16.8-5.4l2.4-2l14,14.8L76.4,38.2z"/>
<rect x="22.6" y="58.5" transform="matrix(0.7636 -0.6457 0.6457 0.7636 -40.2012 34.059)" class="st2" width="7.7" height="26.8"/>
<path class="st3" d="M-0.9,74.5C4.1,84,11.6,91.9,20.7,97.2l14.1-11.9L14.4,61.6L-0.9,74.5z"/>
<rect x="26.9" y="70.3" transform="matrix(0.7636 -0.6457 0.6457 0.7636 -42.4792 38.0579)" class="st4" width="7.7" height="13.4"/>
<rect x="68.4" y="13.3" transform="matrix(0.7646 -0.6445 0.6445 0.7646 -0.1983 52.8662)" class="st2" width="7.7" height="26.8"/>
<rect x="72.8" y="25.1" transform="matrix(0.7646 -0.6445 0.6445 0.7646 -2.481 56.8503)" class="st4" width="7.7" height="13.4"/>
<path class="st3" d="M78.9,0.7L64.1,13.1L84,37.2l15.8-13.4C95.2,14.2,87.8,6.2,78.9,0.7z"/>
<path class="st5" d="M91.1,10.8l-17,14.3l10,12.1l15.8-13.4C97.6,19.1,94.6,14.7,91.1,10.8z"/>
<g>
	<path class="st1" d="M40.8,60.3c-1.4,0.2-2.4,1.5-2.2,2.9l1.2,9.9c0.2,1.4,1.5,2.4,2.9,2.2c1.4-0.2,2.4-1.5,2.2-2.9l-1.2-9.9
		C43.5,61.1,42.3,60.1,40.8,60.3z"/>
	<path class="st1" d="M58.2,54.4c-1.3,0.2-2.3,1.4-2.1,2.7l0.6,5c-0.2,0-0.4,0-0.7,0l-0.6-4.9c-0.2-1.5-1.5-2.5-3-2.3
		c-1.5,0.2-2.5,1.5-2.3,3l0.9,7.2l-0.7,0.6l-0.7-5.8c-0.2-1.5-1.5-2.5-3-2.3c-1.5,0.2-2.5,1.5-2.3,3l1.1,9.3l0,0c0,0,0,0.1,0,0.1
		c0,0,0,0,0,0.1l0.1,0.9c0.2,1.5,1.5,2.5,3,2.3c1.5-0.2,2.5-1.5,2.3-3l-0.4-3.3c0-0.3,0.2-0.4,0.3-0.5c0.2,0,0.4,0,0.5,0.7l0.1,1.1
		c0.2,1.5,1.5,2.5,3,2.3c1.5-0.2,2.5-1.5,2.3-3l-0.3-2.2l0,0l0,0l0-0.1c0-0.2,0-0.5,0.2-0.6c0.3-0.1,0.4,0.2,0.4,0.3l0.2,1.6
		c0.2,1.3,1.4,2.3,2.7,2.1c1.3-0.2,2.3-1.4,2.1-2.7l-1.2-9.5C60.8,55.2,59.5,54.2,58.2,54.4z"/>
</g>
<ellipse transform="matrix(0.7295 -0.684 0.684 0.7295 -43.3996 28.7882)" class="st2" cx="14.7" cy="69.3" rx="1.5" ry="1.5"/>
<ellipse transform="matrix(0.7295 -0.684 0.684 0.7295 -46.5724 27.0819)" class="st2" cx="11" cy="72.4" rx="1.5" ry="1.5"/>
<ellipse transform="matrix(0.9478 -0.3189 0.3189 0.9478 -3.1791 29.5424)" class="st2" cx="88.6" cy="24.5" rx="1.5" ry="1.5"/>
<ellipse transform="matrix(0.9478 -0.3189 0.3189 0.9478 -3.8458 28.1072)" class="st2" cx="83.9" cy="25.8" rx="1.5" ry="1.5"/>
<path class="st5" d="M8.2,87.3c3.7,3.9,7.9,7.2,12.5,9.9l14.1-11.9L24.6,73.4L8.2,87.3z"/>
</svg>
