<?xml version="1.0" encoding="utf-8"?>
<!-- Generator: Adobe Illustrator 19.2.0, SVG Export Plug-In . SVG Version: 6.00 Build 0)  -->
<svg version="1.1" id="Layer_1" xmlns="http://www.w3.org/2000/svg" xmlns:xlink="http://www.w3.org/1999/xlink" x="0px" y="0px"
	 viewBox="0 0 288.1 60" style="enable-background:new 0 0 288.1 60;" xml:space="preserve">
<style type="text/css">
	.st0{fill:#FFFFFF;}
</style>
<g>
	<path class="st0" d="M7.4,60c0,0-16.9-26.4,0.3-60c0,0,33.7,0.4,51.4,30C59.1,30,42.9,59.3,7.4,60z M13.8,6.6
		C3,30.2,22.8,44.3,22.8,44.3c-4.6,4.8-12.4,7.6-12.4,7.6l0.3,0.8c0,0,26.8-6.1,29.3-28.1l0,0c3.6,1.3,7.2,3.3,10.7,7.1l0.4-0.5
		C36.6,11,13.8,19.7,13.8,19.7s-1-6.8,0.9-13.1L13.8,6.6z"/>
	<g>
		<path class="st0" d="M88.6,18.5h-8.7c-0.6,0-1.1,0.5-1.1,1.1v24c0,0.6,0.5,1.1,1.1,1.1h1.8c0.6,0,1.1-0.5,1.1-1.1v-7.8h5.3
			c6.3,0,10.5-3.5,10.5-8.9C98.6,21.9,94.7,18.5,88.6,18.5z M82.8,22.5h5.7c1.8,0,6.1,0.5,6.1,4.7c0,2.9-2.5,4.8-6.3,4.8h-5.4V22.5z
			"/>
		<path class="st0" d="M125.5,34.2c3.9-1.1,6.2-3.9,6.2-7.7c0-2-0.8-3.9-2.2-5.3c-1.7-1.7-4.4-2.7-7.6-2.7h-10.1
			c-0.6,0-1.1,0.5-1.1,1.1v24c0,0.6,0.5,1.1,1.1,1.1h1.8c0.6,0,1.1-0.5,1.1-1.1v-8.8h6.2l7.3,9.5c0.2,0.3,0.6,0.4,0.9,0.4h2.3
			c0.4,0,0.8-0.2,1-0.6c0.2-0.4,0.1-0.9-0.1-1.2L125.5,34.2z M114.8,22.5h7.1c1.7,0,5.8,0.4,5.8,4.2c0,3.2-3.2,4.3-5.9,4.3h-7V22.5z
			"/>
		<path class="st0" d="M163.1,40.9h-14.3v-7.4h12.6c0.6,0,1.1-0.5,1.1-1.1v-1.6c0-0.6-0.5-1.1-1.1-1.1h-12.6v-7.1h14.2
			c0.6,0,1.1-0.5,1.1-1.1v-1.6c0-0.6-0.5-1.1-1.1-1.1h-17.1c-0.6,0-1.1,0.5-1.1,1.1v24c0,0.6,0.5,1.1,1.1,1.1h17.3
			c0.6,0,1.1-0.5,1.1-1.1V42C164.2,41.4,163.7,40.9,163.1,40.9z"/>
		<path class="st0" d="M200.5,18.5h-1.7c-0.4,0-0.7,0.2-0.9,0.5l-8.7,12.8L180.5,19c-0.2-0.3-0.6-0.5-0.9-0.5h-1.7
			c-0.6,0-1.1,0.5-1.1,1.1v24c0,0.6,0.5,1.1,1.1,1.1h1.7c0.6,0,1.1-0.5,1.1-1.1V26.5l7.4,10.8c0.4,0.6,1.6,0.6,2,0l7.4-10.8v17.2
			c0,0.6,0.5,1.1,1.1,1.1h1.8c0.6,0,1.1-0.5,1.1-1.1v-24C201.7,19,201.2,18.5,200.5,18.5z"/>
		<path class="st0" d="M218.8,18.5H217c-0.6,0-1.1,0.5-1.1,1.1v24c0,0.6,0.5,1.1,1.1,1.1h1.8c0.6,0,1.1-0.5,1.1-1.1v-24
			C220,19,219.4,18.5,218.8,18.5z"/>
		<path class="st0" d="M252.6,40.9h-14.3v-7.4h12.6c0.6,0,1.1-0.5,1.1-1.1v-1.6c0-0.6-0.5-1.1-1.1-1.1h-12.6v-7.1h14.2
			c0.6,0,1.1-0.5,1.1-1.1v-1.6c0-0.6-0.5-1.1-1.1-1.1h-17.1c-0.6,0-1.1,0.5-1.1,1.1v24c0,0.6,0.5,1.1,1.1,1.1h17.3
			c0.6,0,1.1-0.5,1.1-1.1V42C253.7,41.4,253.2,40.9,252.6,40.9z"/>
		<path class="st0" d="M287.9,43l-6.8-8.8c3.9-1.1,6.2-3.9,6.2-7.7c0-2-0.8-3.9-2.2-5.3c-1.7-1.7-4.4-2.7-7.6-2.7h-10.1
			c-0.6,0-1.1,0.5-1.1,1.1v24c0,0.6,0.5,1.1,1.1,1.1h1.8c0.6,0,1.1-0.5,1.1-1.1v-8.8h6.2l7.3,9.5c0.2,0.3,0.6,0.4,0.9,0.4h2.3
			c0.4,0,0.8-0.2,1-0.6C288.2,43.8,288.1,43.3,287.9,43z M270.3,22.5h7.1c1.7,0,5.8,0.4,5.8,4.2c0,3.2-3.2,4.3-5.9,4.3h-7V22.5z"/>
	</g>
</g>
</svg>
