<?xml version="1.0" encoding="utf-8"?>
<!-- Generator: Adobe Illustrator 19.2.0, SVG Export Plug-In . SVG Version: 6.00 Build 0)  -->
<svg version="1.1" id="Layer_1" xmlns="http://www.w3.org/2000/svg" xmlns:xlink="http://www.w3.org/1999/xlink" x="0px" y="0px"
	 viewBox="0 0 100 100" style="enable-background:new 0 0 100 100;" xml:space="preserve">
<style type="text/css">
	.st0{fill:#D7711A;}
	.st1{opacity:0.5;}
	.st2{fill:#F39122;}
	.st3{opacity:0.25;}
	.st4{opacity:0.2;fill:#F39122;}
	.st5{opacity:0.2;fill:#FFFFFF;}
	.st6{fill:#FFFFFF;}
</style>
<g>
	<polygon class="st0" points="21.4,92.4 35.7,86.4 46.7,97.4 55.8,51.2 30.5,46.3 	"/>
	<polygon class="st1" points="49.8,81.9 55.8,51.2 49.8,50 43.7,51.2 	"/>
	<polygon class="st0" points="79.5,92.4 65.2,86.4 54.2,97.4 45.1,51.2 70.4,46.3 	"/>
	<path class="st2" d="M82.6,38.7l0.6-0.6c1.8-1.9,1.8-4.9-0.1-6.7l-0.6-0.6c-1.4-1.3-1.8-3.3-1.1-5.1l0.3-0.8
		c0.9-2.4-0.3-5.2-2.7-6.1l-0.1,0c-1.8-0.7-3-2.5-3-4.4v-0.1c0-2.6-2.1-4.7-4.7-4.7h-0.8c-1.9,0-3.6-1.1-4.3-2.9L65.7,6
		c-1-2.4-3.8-3.5-6.2-2.5l-0.8,0.3C57,4.6,55,4.2,53.6,2.9L53,2.3c-1.9-1.8-4.9-1.8-6.7,0.1L45.8,3c-1.3,1.4-3.3,1.8-5.1,1.1
		l-0.8-0.3c-2.4-0.9-5.2,0.3-6.1,2.7l0,0c-0.7,1.8-2.5,3-4.4,3h-0.1c-2.6,0-4.7,2.1-4.7,4.7v0.9c0,1.9-1.1,3.6-2.9,4.3L21,19.9
		c-2.4,1-3.5,3.8-2.5,6.2l0.3,0.8c0.7,1.7,0.4,3.8-0.9,5.1l-0.6,0.6c-1.8,1.9-1.8,4.9,0.1,6.7l0.6,0.6c1.4,1.3,1.8,3.3,1.1,5.1
		l-0.3,0.8c-0.9,2.4,0.3,5.2,2.7,6.1l0,0c1.8,0.7,3,2.5,3,4.4v0.1c0,2.6,2.1,4.7,4.7,4.7h0.8c1.9,0,3.6,1.1,4.3,2.9l0.3,0.7
		c1,2.4,3.8,3.5,6.2,2.5l0.8-0.3c1.7-0.7,3.8-0.4,5.1,0.9l0.6,0.6c1.9,1.8,4.9,1.8,6.7-0.1l0.6-0.6c1.3-1.4,3.3-1.8,5.1-1.1l0.8,0.3
		c2.4,0.9,5.2-0.3,6.1-2.7l0,0c0.7-1.8,2.5-3,4.4-3h0c2.6,0,4.7-2.1,4.7-4.7v-0.9c0-1.9,1.1-3.6,2.9-4.3l0.8-0.3
		c2.4-1,3.5-3.8,2.5-6.2l-0.3-0.8C80.9,42,81.3,40,82.6,38.7z"/>
	<path class="st3" d="M70.4,46.3l-19.9,3.9l-19.9-3.9L27.4,62c0.6,0.2,1.3,0,1.9,0h0.8c1.2,0,2.4,1.1,2.8,2.2l0.3,0.9
		c1,2.3,3.3,4,5.9,4c0.9,0,1.7-0.1,2.5-0.5l0.8-0.3c0.4-0.2,0.8-0.2,1.2-0.2c0.8,0,1.6,0.3,2.1,0.9l0.6,0.6c1.2,1.1,2.8,1.8,4.4,1.8
		c1.7,0,3.4-0.7,4.6-1.9l0.6-0.6c0.6-0.6,1.4-0.9,2.2-0.9c0.4,0,0.8,0.1,1.1,0.2l0.8,0.4c0.7,0.3,1.5,0.6,2.3,0.6c0,0,0,0,0,0
		c2.6,0,5-1.8,5.9-4.2l0-0.1c0.5-1.2,1.6-2,2.9-2c0.9,0,1.7-0.2,2.4-0.5L70.4,46.3z"/>
	<path class="st2" d="M82.6,38.7l0.6-0.6c1.8-1.9,1.8-4.9-0.1-6.7l-0.6-0.6c-1.4-1.3-1.8-3.3-1.1-5.1l0.3-0.8
		c0.9-2.4-0.3-5.2-2.7-6.1l-0.1,0c-1.8-0.7-3-2.5-3-4.4v-0.1c0-2.6-2.1-4.7-4.7-4.7h-0.8c-1.9,0-3.6-1.1-4.3-2.9L65.7,6
		c-1-2.4-3.8-3.5-6.2-2.5l-0.8,0.3C57,4.6,55,4.2,53.6,2.9L53,2.3c-1.9-1.8-4.9-1.8-6.7,0.1L45.8,3c-1.3,1.4-3.3,1.8-5.1,1.1
		l-0.8-0.3c-2.4-0.9-5.2,0.3-6.1,2.7l0,0c-0.7,1.8-2.5,3-4.4,3h-0.1c-2.6,0-4.7,2.1-4.7,4.7v0.9c0,1.9-1.1,3.6-2.9,4.3L21,19.9
		c-2.4,1-3.5,3.8-2.5,6.2l0.3,0.8c0.7,1.7,0.4,3.8-0.9,5.1l-0.6,0.6c-1.8,1.9-1.8,4.9,0.1,6.7l0.6,0.6c1.4,1.3,1.8,3.3,1.1,5.1
		l-0.3,0.8c-0.9,2.4,0.3,5.2,2.7,6.1l0,0c1.8,0.7,3,2.5,3,4.4v0.1c0,2.6,2.1,4.7,4.7,4.7h0.8c1.9,0,3.6,1.1,4.3,2.9l0.3,0.7
		c1,2.4,3.8,3.5,6.2,2.5l0.8-0.3c1.7-0.7,3.8-0.4,5.1,0.9l0.6,0.6c1.9,1.8,4.9,1.8,6.7-0.1l0.6-0.6c1.3-1.4,3.3-1.8,5.1-1.1l0.8,0.3
		c2.4,0.9,5.2-0.3,6.1-2.7l0,0c0.7-1.8,2.5-3,4.4-3h0c2.6,0,4.7-2.1,4.7-4.7v-0.9c0-1.9,1.1-3.6,2.9-4.3l0.8-0.3
		c2.4-1,3.5-3.8,2.5-6.2l-0.3-0.8C80.9,42,81.3,40,82.6,38.7z"/>
	<circle class="st4" cx="50.2" cy="35.3" r="26.6"/>
	<circle class="st5" cx="50.2" cy="35.3" r="22.6"/>
	<path class="st6" d="M51.5,25l2,6.1c0.2,0.5,0.7,0.9,1.2,0.9H61c1.2,0,1.8,1.6,0.8,2.3l-5.2,3.8c-0.4,0.3-0.6,0.9-0.5,1.4l2,6.1
		c0.4,1.2-1,2.2-2,1.4L51,43.3c-0.4-0.3-1.1-0.3-1.5,0l-5.2,3.8c-1,0.7-2.4-0.3-2-1.4l2-6.1c0.2-0.5,0-1.1-0.5-1.4l-5.2-3.8
		c-1-0.7-0.5-2.3,0.8-2.3h6.4c0.6,0,1-0.4,1.2-0.9l2-6.1C49.4,23.8,51.1,23.8,51.5,25z"/>
</g>
</svg>
