<svg id="Layer_1" xmlns="http://www.w3.org/2000/svg" viewBox="0 0 394.6 201.1"><style>.st0{fill:url(#SVGID_1_);} .st1{fill:url(#SVGID_2_);} .st2{fill:url(#SVGID_3_);} .st3{fill:url(#SVGID_4_);} .st4{fill:url(#SVGID_5_);} .st5{fill:none;stroke:#006033;stroke-width:1.042;} .st6{fill:url(#SVGID_6_);} .st7{fill:url(#SVGID_7_);} .st8{fill:url(#SVGID_8_);} .st9{fill:url(#SVGID_9_);} .st10{fill:url(#SVGID_10_);} .st11{fill:url(#SVGID_11_);} .st12{fill:url(#SVGID_12_);} .st13{fill:url(#SVGID_13_);} .st14{fill:url(#SVGID_14_);} .st15{fill:url(#SVGID_15_);} .st16{fill:url(#SVGID_16_);} .st17{fill:url(#SVGID_17_);} .st18{fill:url(#SVGID_18_);} .st19{fill:url(#SVGID_19_);} .st20{fill:url(#SVGID_20_);} .st21{fill:url(#SVGID_21_);} .st22{fill:url(#SVGID_22_);} .st23{fill:url(#SVGID_23_);} .st24{fill:url(#SVGID_24_);} .st25{fill:url(#SVGID_25_);} .st26{fill:url(#SVGID_26_);} .st27{fill:url(#SVGID_27_);} .st28{fill:url(#SVGID_28_);} .st29{fill:url(#SVGID_29_);} .st30{fill:url(#SVGID_30_);} .st31{fill:url(#SVGID_31_);} .st32{fill:url(#SVGID_32_);} .st33{fill:url(#SVGID_33_);} .st34{fill:url(#SVGID_34_);} .st35{fill:url(#SVGID_35_);} .st36{fill:url(#SVGID_36_);} .st37{fill:url(#SVGID_37_);} .st38{fill:url(#SVGID_38_);} .st39{fill:url(#SVGID_39_);} .st40{fill:url(#SVGID_40_);} .st41{fill:url(#SVGID_41_);} .st42{fill:url(#SVGID_42_);} .st43{fill:url(#SVGID_43_);} .st44{fill:url(#SVGID_44_);} .st45{fill:url(#SVGID_45_);} .st46{fill:url(#SVGID_46_);} .st47{fill:url(#SVGID_47_);} .st48{fill:url(#SVGID_48_);} .st49{fill:url(#SVGID_49_);} .st50{fill:url(#SVGID_50_);} .st51{fill:url(#SVGID_51_);} .st52{fill:url(#SVGID_52_);} .st53{fill:url(#SVGID_53_);} .st54{fill:url(#SVGID_54_);} .st55{fill:url(#SVGID_55_);} .st56{fill:#007647;} .st57{fill:url(#SVGID_56_);} .st58{fill:#A3BFA0;} .st59{fill:#7DA97E;} .st60{fill:url(#SVGID_57_);} .st61{fill:url(#SVGID_58_);} .st62{fill:#006033;} .st63{fill:url(#SVGID_59_);} .st64{fill:#FFFFFF;}</style><linearGradient id="SVGID_1_" gradientUnits="userSpaceOnUse" x1="196.868" y1="144.739" x2="196.868" y2="66.557"><stop offset="0" stop-color="#007647"/><stop offset=".059" stop-color="#006D40"/><stop offset=".176" stop-color="#00572E"/><stop offset=".245" stop-color="#004923"/></linearGradient><path class="st0" d="M10.9 82.3l9.9-15.7h353l9 15.7v62.4H10.9z"/><linearGradient id="SVGID_2_" gradientUnits="userSpaceOnUse" x1="196.868" y1="70.581" x2="196.868" y2="140.716"><stop offset=".718" stop-color="#0C3F2E"/><stop offset=".847" stop-color="#61845F"/><stop offset="1" stop-color="#A3BD98"/></linearGradient><path class="st1" d="M54.1 71.5l.2-.9h285l.1.9c1.5 13.5 24 16.1 33.6 16.6l1.8.1V123l-1.9.1c-27 .7-32.3 12-33.3 16.8l-.2.9h-285l-.1-.9c-1.5-13.5-24-16.1-33.5-16.6L19 123V88.3l1.9-.1c26.9-.7 32.2-11.9 33.2-16.7z"/><linearGradient id="SVGID_3_" gradientUnits="userSpaceOnUse" x1="196.866" y1="139.444" x2="196.866" y2="71.853"><stop offset="0" stop-color="#007647"/><stop offset=".059" stop-color="#006D40"/><stop offset=".176" stop-color="#00572E"/><stop offset=".245" stop-color="#004923"/></linearGradient><path class="st2" d="M336.4 139.4H57.5l-.1-.6c-2.4-13.1-25-16.1-34.6-16.8h-.6V89.5h.7c26.8-1.2 32.9-12.3 34.3-17.1l.1-.5h278.9l.1.6c2.4 13.1 24.9 16.2 34.5 16.9h.6v32.5h-.7c-26.8 1.2-32.9 12.3-34.3 17.1v.4zm-277.8-1.3h276.8c1.7-5.2 8.5-16.2 34.8-17.5v-30c-10.1-.8-32-4.1-35-17.4H58.3c-1.7 5.2-8.5 16.2-34.8 17.5v29.9c10.2.9 32.1 4.1 35.1 17.5z"/><linearGradient id="SVGID_4_" gradientUnits="userSpaceOnUse" x1="196.868" y1="134.234" x2="196.868" y2="77.067"><stop offset="0" stop-color="#5BA546"/><stop offset=".032" stop-color="#4B9942"/><stop offset=".097" stop-color="#1E7E39"/><stop offset=".135" stop-color="#006D31"/><stop offset=".137" stop-color="#006C31"/><stop offset=".172" stop-color="#005623"/><stop offset=".199" stop-color="#004819"/><stop offset=".215" stop-color="#004315"/></linearGradient><path class="st3" d="M196.9 134.2c25.6 0 46.5-12.8 46.5-28.6S222.6 77 196.9 77c-25.6 0-46.5 12.8-46.5 28.6s20.8 28.6 46.5 28.6z"/><linearGradient id="SVGID_5_" gradientUnits="userSpaceOnUse" x1="196.868" y1="135.217" x2="196.868" y2="76.084"><stop offset="0" stop-color="#007647"/><stop offset=".05" stop-color="#006D40"/><stop offset=".15" stop-color="#00572E"/><stop offset=".209" stop-color="#004923"/></linearGradient><path class="st4" d="M196.9 134.2v-1c24.2 0 44.5-12.2 44.5-27.6 0-15.4-20.3-27.6-44.5-27.6s-44.5 12.2-44.5 27.6c0 15.4 20.3 27.6 44.5 27.6v2c-27.1 0-48.4-13.4-48.4-29.6 0-16.2 21.4-29.5 48.4-29.6 27 0 48.4 13.4 48.4 29.6 0 16.2-21.4 29.5-48.4 29.6v-1z"/><ellipse class="st5" cx="196.9" cy="105.6" rx="41.3" ry="25.7"/><linearGradient id="SVGID_6_" gradientUnits="userSpaceOnUse" x1="29.299" y1="140.716" x2="29.299" y2="128.581"><stop offset=".006" stop-color="#7DA97E"/><stop offset="1" stop-color="#356E40"/></linearGradient><path class="st6" d="M39.6 136.4c0 2.2-6.2 3-8.9 3v1.3h-3v-1.3c-4.1-.2-7.1-.8-8.4-1.1v-2.1c.8.2 4.6 1.3 8.4 1.5v-2.5c-2.4-.2-8.7-.8-8.7-3 0-2.3 6.5-2.8 8.7-2.9v-.6h3v.6c1.4.1 3.8.2 7.9 1.1v2.2c-3.2-1-6.3-1.4-7.9-1.5v2c3.4.4 8.9 1.1 8.9 3.3zm-11.9-3.6V131c-.8 0-2.9.2-2.9.9 0 .5 1.8.8 2.9.9zm6.1 3.8c0-.6-2-1-3.1-1.2v2.2c.9 0 3.1-.2 3.1-1z"/><linearGradient id="SVGID_7_" gradientUnits="userSpaceOnUse" x1="364.438" y1="140.716" x2="364.438" y2="128.581"><stop offset=".006" stop-color="#7DA97E"/><stop offset="1" stop-color="#356E40"/></linearGradient><path class="st7" d="M374.8 136.4c0 2.2-6.2 3-8.9 3v1.3h-3v-1.3c-4.1-.2-7.1-.8-8.4-1.1v-2.1c.8.2 4.6 1.3 8.4 1.5v-2.5c-2.4-.2-8.7-.8-8.7-3 0-2.3 6.5-2.8 8.7-2.9v-.6h3v.6c1.4.1 3.8.2 7.9 1.1v2.2c-3.2-1-6.3-1.4-7.9-1.5v2c3.3.4 8.9 1.1 8.9 3.3zm-12-3.6V131c-.8 0-2.9.2-2.9.9 0 .5 1.8.8 2.9.9zm6.1 3.8c0-.6-2-1-3.1-1.2v2.2c.9 0 3.1-.2 3.1-1z"/><linearGradient id="SVGID_8_" gradientUnits="userSpaceOnUse" x1="10.905" y1="166.004" x2="382.831" y2="166.004"><stop offset="0" stop-color="#365B44"/><stop offset=".015" stop-color="#3A5E47"/><stop offset=".114" stop-color="#4D7455"/><stop offset=".213" stop-color="#5E8760"/><stop offset=".311" stop-color="#6A9467"/><stop offset=".407" stop-color="#719C6B"/><stop offset=".5" stop-color="#739E6D"/><stop offset=".593" stop-color="#719C6B"/><stop offset=".689" stop-color="#6A9467"/><stop offset=".787" stop-color="#5E8760"/><stop offset=".886" stop-color="#4D7455"/><stop offset=".985" stop-color="#3A5E47"/><stop offset="1" stop-color="#365B44"/></linearGradient><path class="st8" d="M10.9 144.7h371.9v42.5H10.9z"/><linearGradient id="SVGID_9_" gradientUnits="userSpaceOnUse" x1="10.905" y1="145.723" x2="382.831" y2="145.723"><stop offset="0" stop-color="#5A825C"/><stop offset=".048" stop-color="#5E875F"/><stop offset=".202" stop-color="#6A9467"/><stop offset=".354" stop-color="#719C6B"/><stop offset=".5" stop-color="#739E6D"/><stop offset=".646" stop-color="#719C6B"/><stop offset=".798" stop-color="#6A9467"/><stop offset=".952" stop-color="#5E875F"/><stop offset="1" stop-color="#5A825C"/></linearGradient><path class="st9" d="M382.8 146.7H10.9v-2h371.9v2z"/><linearGradient id="SVGID_10_" gradientUnits="userSpaceOnUse" x1="10.905" y1="149.78" x2="382.831" y2="149.78"><stop offset="0" stop-color="#5A825C"/><stop offset=".048" stop-color="#5E875F"/><stop offset=".202" stop-color="#6A9467"/><stop offset=".354" stop-color="#719C6B"/><stop offset=".5" stop-color="#739E6D"/><stop offset=".646" stop-color="#719C6B"/><stop offset=".798" stop-color="#6A9467"/><stop offset=".952" stop-color="#5E875F"/><stop offset="1" stop-color="#5A825C"/></linearGradient><path class="st10" d="M382.8 150.8H10.9v-2h371.9v2z"/><linearGradient id="SVGID_11_" gradientUnits="userSpaceOnUse" x1="10.905" y1="153.835" x2="382.831" y2="153.835"><stop offset="0" stop-color="#5A825C"/><stop offset=".048" stop-color="#5E875F"/><stop offset=".202" stop-color="#6A9467"/><stop offset=".354" stop-color="#719C6B"/><stop offset=".5" stop-color="#739E6D"/><stop offset=".646" stop-color="#719C6B"/><stop offset=".798" stop-color="#6A9467"/><stop offset=".952" stop-color="#5E875F"/><stop offset="1" stop-color="#5A825C"/></linearGradient><path class="st11" d="M382.8 154.8H10.9v-1.9h371.9v1.9z"/><linearGradient id="SVGID_12_" gradientUnits="userSpaceOnUse" x1="10.905" y1="157.891" x2="382.831" y2="157.891"><stop offset="0" stop-color="#5A825C"/><stop offset=".048" stop-color="#5E875F"/><stop offset=".202" stop-color="#6A9467"/><stop offset=".354" stop-color="#719C6B"/><stop offset=".5" stop-color="#739E6D"/><stop offset=".646" stop-color="#719C6B"/><stop offset=".798" stop-color="#6A9467"/><stop offset=".952" stop-color="#5E875F"/><stop offset="1" stop-color="#5A825C"/></linearGradient><path class="st12" d="M382.8 158.9H10.9v-2h371.9v2z"/><linearGradient id="SVGID_13_" gradientUnits="userSpaceOnUse" x1="10.905" y1="161.946" x2="382.831" y2="161.946"><stop offset="0" stop-color="#5A825C"/><stop offset=".048" stop-color="#5E875F"/><stop offset=".202" stop-color="#6A9467"/><stop offset=".354" stop-color="#719C6B"/><stop offset=".5" stop-color="#739E6D"/><stop offset=".646" stop-color="#719C6B"/><stop offset=".798" stop-color="#6A9467"/><stop offset=".952" stop-color="#5E875F"/><stop offset="1" stop-color="#5A825C"/></linearGradient><path class="st13" d="M382.8 162.9H10.9V161h371.9v1.9z"/><linearGradient id="SVGID_14_" gradientUnits="userSpaceOnUse" x1="10.905" y1="166.004" x2="382.831" y2="166.004"><stop offset="0" stop-color="#5A825C"/><stop offset=".048" stop-color="#5E875F"/><stop offset=".202" stop-color="#6A9467"/><stop offset=".354" stop-color="#719C6B"/><stop offset=".5" stop-color="#739E6D"/><stop offset=".646" stop-color="#719C6B"/><stop offset=".798" stop-color="#6A9467"/><stop offset=".952" stop-color="#5E875F"/><stop offset="1" stop-color="#5A825C"/></linearGradient><path class="st14" d="M382.8 167H10.9v-2h371.9v2z"/><linearGradient id="SVGID_15_" gradientUnits="userSpaceOnUse" x1="10.905" y1="170.059" x2="382.831" y2="170.059"><stop offset="0" stop-color="#5A825C"/><stop offset=".048" stop-color="#5E875F"/><stop offset=".202" stop-color="#6A9467"/><stop offset=".354" stop-color="#719C6B"/><stop offset=".5" stop-color="#739E6D"/><stop offset=".646" stop-color="#719C6B"/><stop offset=".798" stop-color="#6A9467"/><stop offset=".952" stop-color="#5E875F"/><stop offset="1" stop-color="#5A825C"/></linearGradient><path class="st15" d="M382.8 171H10.9v-1.9h371.9v1.9z"/><linearGradient id="SVGID_16_" gradientUnits="userSpaceOnUse" x1="10.905" y1="174.114" x2="382.831" y2="174.114"><stop offset="0" stop-color="#5A825C"/><stop offset=".048" stop-color="#5E875F"/><stop offset=".202" stop-color="#6A9467"/><stop offset=".354" stop-color="#719C6B"/><stop offset=".5" stop-color="#739E6D"/><stop offset=".646" stop-color="#719C6B"/><stop offset=".798" stop-color="#6A9467"/><stop offset=".952" stop-color="#5E875F"/><stop offset="1" stop-color="#5A825C"/></linearGradient><path class="st16" d="M382.8 175.1H10.9v-2h371.9v2z"/><linearGradient id="SVGID_17_" gradientUnits="userSpaceOnUse" x1="10.905" y1="178.172" x2="382.831" y2="178.172"><stop offset="0" stop-color="#5A825C"/><stop offset=".048" stop-color="#5E875F"/><stop offset=".202" stop-color="#6A9467"/><stop offset=".354" stop-color="#719C6B"/><stop offset=".5" stop-color="#739E6D"/><stop offset=".646" stop-color="#719C6B"/><stop offset=".798" stop-color="#6A9467"/><stop offset=".952" stop-color="#5E875F"/><stop offset="1" stop-color="#5A825C"/></linearGradient><path class="st17" d="M382.8 179.2H10.9v-2h371.9v2z"/><linearGradient id="SVGID_18_" gradientUnits="userSpaceOnUse" x1="10.905" y1="182.227" x2="382.831" y2="182.227"><stop offset="0" stop-color="#5A825C"/><stop offset=".048" stop-color="#5E875F"/><stop offset=".202" stop-color="#6A9467"/><stop offset=".354" stop-color="#719C6B"/><stop offset=".5" stop-color="#739E6D"/><stop offset=".646" stop-color="#719C6B"/><stop offset=".798" stop-color="#6A9467"/><stop offset=".952" stop-color="#5E875F"/><stop offset="1" stop-color="#5A825C"/></linearGradient><path class="st18" d="M382.8 183.2H10.9v-2h371.9v2z"/><linearGradient id="SVGID_19_" gradientUnits="userSpaceOnUse" x1="10.905" y1="186.284" x2="382.831" y2="186.284"><stop offset="0" stop-color="#5A825C"/><stop offset=".048" stop-color="#5E875F"/><stop offset=".202" stop-color="#6A9467"/><stop offset=".354" stop-color="#719C6B"/><stop offset=".5" stop-color="#739E6D"/><stop offset=".646" stop-color="#719C6B"/><stop offset=".798" stop-color="#6A9467"/><stop offset=".952" stop-color="#5E875F"/><stop offset="1" stop-color="#5A825C"/></linearGradient><path class="st19" d="M382.8 187.3H10.9v-2h371.9v2z"/><linearGradient id="SVGID_20_" gradientUnits="userSpaceOnUse" x1="10.905" y1="145.051" x2="382.831" y2="145.051"><stop offset="0" stop-color="#89BA80"/><stop offset=".051" stop-color="#83B37B"/><stop offset=".204" stop-color="#7BA873"/><stop offset=".354" stop-color="#75A16E"/><stop offset=".5" stop-color="#739E6D"/><stop offset=".645" stop-color="#75A16E"/><stop offset=".796" stop-color="#7BA873"/><stop offset=".949" stop-color="#83B37B"/><stop offset="1" stop-color="#89BA80"/></linearGradient><path class="st20" d="M382.8 145.4H10.9v-.7h371.9v.7z"/><linearGradient id="SVGID_21_" gradientUnits="userSpaceOnUse" x1="10.905" y1="149.045" x2="382.831" y2="149.045"><stop offset="0" stop-color="#89BA80"/><stop offset=".051" stop-color="#83B37B"/><stop offset=".204" stop-color="#7BA873"/><stop offset=".354" stop-color="#75A16E"/><stop offset=".5" stop-color="#739E6D"/><stop offset=".645" stop-color="#75A16E"/><stop offset=".796" stop-color="#7BA873"/><stop offset=".949" stop-color="#83B37B"/><stop offset="1" stop-color="#89BA80"/></linearGradient><path class="st21" d="M382.8 149.4H10.9v-.7h371.9v.7z"/><linearGradient id="SVGID_22_" gradientUnits="userSpaceOnUse" x1="10.905" y1="153.039" x2="382.831" y2="153.039"><stop offset="0" stop-color="#89BA80"/><stop offset=".051" stop-color="#83B37B"/><stop offset=".204" stop-color="#7BA873"/><stop offset=".354" stop-color="#75A16E"/><stop offset=".5" stop-color="#739E6D"/><stop offset=".645" stop-color="#75A16E"/><stop offset=".796" stop-color="#7BA873"/><stop offset=".949" stop-color="#83B37B"/><stop offset="1" stop-color="#89BA80"/></linearGradient><path class="st22" d="M382.8 153.4H10.9v-.7h371.9v.7z"/><linearGradient id="SVGID_23_" gradientUnits="userSpaceOnUse" x1="10.905" y1="157.034" x2="382.831" y2="157.034"><stop offset="0" stop-color="#89BA80"/><stop offset=".051" stop-color="#83B37B"/><stop offset=".204" stop-color="#7BA873"/><stop offset=".354" stop-color="#75A16E"/><stop offset=".5" stop-color="#739E6D"/><stop offset=".645" stop-color="#75A16E"/><stop offset=".796" stop-color="#7BA873"/><stop offset=".949" stop-color="#83B37B"/><stop offset="1" stop-color="#89BA80"/></linearGradient><path class="st23" d="M382.8 157.3H10.9v-.6h371.9v.6z"/><linearGradient id="SVGID_24_" gradientUnits="userSpaceOnUse" x1="10.905" y1="161.028" x2="382.831" y2="161.028"><stop offset="0" stop-color="#89BA80"/><stop offset=".051" stop-color="#83B37B"/><stop offset=".204" stop-color="#7BA873"/><stop offset=".354" stop-color="#75A16E"/><stop offset=".5" stop-color="#739E6D"/><stop offset=".645" stop-color="#75A16E"/><stop offset=".796" stop-color="#7BA873"/><stop offset=".949" stop-color="#83B37B"/><stop offset="1" stop-color="#89BA80"/></linearGradient><path class="st24" d="M382.8 161.3H10.9v-.6h371.9v.6z"/><linearGradient id="SVGID_25_" gradientUnits="userSpaceOnUse" x1="10.905" y1="165.023" x2="382.831" y2="165.023"><stop offset="0" stop-color="#89BA80"/><stop offset=".051" stop-color="#83B37B"/><stop offset=".204" stop-color="#7BA873"/><stop offset=".354" stop-color="#75A16E"/><stop offset=".5" stop-color="#739E6D"/><stop offset=".645" stop-color="#75A16E"/><stop offset=".796" stop-color="#7BA873"/><stop offset=".949" stop-color="#83B37B"/><stop offset="1" stop-color="#89BA80"/></linearGradient><path class="st25" d="M382.8 165.3H10.9v-.6h371.9v.6z"/><linearGradient id="SVGID_26_" gradientUnits="userSpaceOnUse" x1="10.905" y1="169.015" x2="382.831" y2="169.015"><stop offset="0" stop-color="#89BA80"/><stop offset=".051" stop-color="#83B37B"/><stop offset=".204" stop-color="#7BA873"/><stop offset=".354" stop-color="#75A16E"/><stop offset=".5" stop-color="#739E6D"/><stop offset=".645" stop-color="#75A16E"/><stop offset=".796" stop-color="#7BA873"/><stop offset=".949" stop-color="#83B37B"/><stop offset="1" stop-color="#89BA80"/></linearGradient><path class="st26" d="M382.8 169.3H10.9v-.6h371.9v.6z"/><linearGradient id="SVGID_27_" gradientUnits="userSpaceOnUse" x1="10.905" y1="173.009" x2="382.831" y2="173.009"><stop offset="0" stop-color="#89BA80"/><stop offset=".051" stop-color="#83B37B"/><stop offset=".204" stop-color="#7BA873"/><stop offset=".354" stop-color="#75A16E"/><stop offset=".5" stop-color="#739E6D"/><stop offset=".645" stop-color="#75A16E"/><stop offset=".796" stop-color="#7BA873"/><stop offset=".949" stop-color="#83B37B"/><stop offset="1" stop-color="#89BA80"/></linearGradient><path class="st27" d="M382.8 173.3H10.9v-.6h371.9v.6z"/><linearGradient id="SVGID_28_" gradientUnits="userSpaceOnUse" x1="10.905" y1="177.003" x2="382.831" y2="177.003"><stop offset="0" stop-color="#89BA80"/><stop offset=".051" stop-color="#83B37B"/><stop offset=".204" stop-color="#7BA873"/><stop offset=".354" stop-color="#75A16E"/><stop offset=".5" stop-color="#739E6D"/><stop offset=".645" stop-color="#75A16E"/><stop offset=".796" stop-color="#7BA873"/><stop offset=".949" stop-color="#83B37B"/><stop offset="1" stop-color="#89BA80"/></linearGradient><path class="st28" d="M382.8 177.3H10.9v-.6h371.9v.6z"/><linearGradient id="SVGID_29_" gradientUnits="userSpaceOnUse" x1="10.905" y1="180.995" x2="382.831" y2="180.995"><stop offset="0" stop-color="#89BA80"/><stop offset=".051" stop-color="#83B37B"/><stop offset=".204" stop-color="#7BA873"/><stop offset=".354" stop-color="#75A16E"/><stop offset=".5" stop-color="#739E6D"/><stop offset=".645" stop-color="#75A16E"/><stop offset=".796" stop-color="#7BA873"/><stop offset=".949" stop-color="#83B37B"/><stop offset="1" stop-color="#89BA80"/></linearGradient><path class="st29" d="M382.8 181.3H10.9v-.6h371.9v.6z"/><linearGradient id="SVGID_30_" gradientUnits="userSpaceOnUse" x1="10.905" y1="184.99" x2="382.831" y2="184.99"><stop offset="0" stop-color="#89BA80"/><stop offset=".051" stop-color="#83B37B"/><stop offset=".204" stop-color="#7BA873"/><stop offset=".354" stop-color="#75A16E"/><stop offset=".5" stop-color="#739E6D"/><stop offset=".645" stop-color="#75A16E"/><stop offset=".796" stop-color="#7BA873"/><stop offset=".949" stop-color="#83B37B"/><stop offset="1" stop-color="#89BA80"/></linearGradient><path class="st30" d="M382.8 185.3H10.9v-.6h371.9v.6z"/><linearGradient id="SVGID_31_" gradientUnits="userSpaceOnUse" x1="10.905" y1="103.594" x2="382.831" y2="103.594"><stop offset="0" stop-color="#365B44"/><stop offset=".015" stop-color="#3A5E47"/><stop offset=".114" stop-color="#4D7455"/><stop offset=".213" stop-color="#5E8760"/><stop offset=".311" stop-color="#6A9467"/><stop offset=".407" stop-color="#719C6B"/><stop offset=".5" stop-color="#739E6D"/><stop offset=".593" stop-color="#719C6B"/><stop offset=".689" stop-color="#6A9467"/><stop offset=".787" stop-color="#5E8760"/><stop offset=".886" stop-color="#4D7455"/><stop offset=".985" stop-color="#3A5E47"/><stop offset="1" stop-color="#365B44"/></linearGradient><path class="st31" d="M10.9 82.3h371.9v42.5H10.9z"/><linearGradient id="SVGID_32_" gradientUnits="userSpaceOnUse" x1="10.905" y1="83.315" x2="382.831" y2="83.315"><stop offset="0" stop-color="#5A825C"/><stop offset=".048" stop-color="#5E875F"/><stop offset=".202" stop-color="#6A9467"/><stop offset=".354" stop-color="#719C6B"/><stop offset=".5" stop-color="#739E6D"/><stop offset=".646" stop-color="#719C6B"/><stop offset=".798" stop-color="#6A9467"/><stop offset=".952" stop-color="#5E875F"/><stop offset="1" stop-color="#5A825C"/></linearGradient><path class="st32" d="M382.8 84.3H10.9v-2h371.9v2z"/><linearGradient id="SVGID_33_" gradientUnits="userSpaceOnUse" x1="10.905" y1="87.37" x2="382.831" y2="87.37"><stop offset="0" stop-color="#5A825C"/><stop offset=".048" stop-color="#5E875F"/><stop offset=".202" stop-color="#6A9467"/><stop offset=".354" stop-color="#719C6B"/><stop offset=".5" stop-color="#739E6D"/><stop offset=".646" stop-color="#719C6B"/><stop offset=".798" stop-color="#6A9467"/><stop offset=".952" stop-color="#5E875F"/><stop offset="1" stop-color="#5A825C"/></linearGradient><path class="st33" d="M382.8 88.4H10.9v-2h371.9v2z"/><linearGradient id="SVGID_34_" gradientUnits="userSpaceOnUse" x1="10.905" y1="91.428" x2="382.831" y2="91.428"><stop offset="0" stop-color="#5A825C"/><stop offset=".048" stop-color="#5E875F"/><stop offset=".202" stop-color="#6A9467"/><stop offset=".354" stop-color="#719C6B"/><stop offset=".5" stop-color="#739E6D"/><stop offset=".646" stop-color="#719C6B"/><stop offset=".798" stop-color="#6A9467"/><stop offset=".952" stop-color="#5E875F"/><stop offset="1" stop-color="#5A825C"/></linearGradient><path class="st34" d="M382.8 92.4H10.9v-2h371.9v2z"/><linearGradient id="SVGID_35_" gradientUnits="userSpaceOnUse" x1="10.905" y1="95.483" x2="382.831" y2="95.483"><stop offset="0" stop-color="#5A825C"/><stop offset=".048" stop-color="#5E875F"/><stop offset=".202" stop-color="#6A9467"/><stop offset=".354" stop-color="#719C6B"/><stop offset=".5" stop-color="#739E6D"/><stop offset=".646" stop-color="#719C6B"/><stop offset=".798" stop-color="#6A9467"/><stop offset=".952" stop-color="#5E875F"/><stop offset="1" stop-color="#5A825C"/></linearGradient><path class="st35" d="M382.8 96.5H10.9v-2h371.9v2z"/><linearGradient id="SVGID_36_" gradientUnits="userSpaceOnUse" x1="10.905" y1="99.538" x2="382.831" y2="99.538"><stop offset="0" stop-color="#5A825C"/><stop offset=".048" stop-color="#5E875F"/><stop offset=".202" stop-color="#6A9467"/><stop offset=".354" stop-color="#719C6B"/><stop offset=".5" stop-color="#739E6D"/><stop offset=".646" stop-color="#719C6B"/><stop offset=".798" stop-color="#6A9467"/><stop offset=".952" stop-color="#5E875F"/><stop offset="1" stop-color="#5A825C"/></linearGradient><path class="st36" d="M382.8 100.5H10.9v-1.9h371.9v1.9z"/><linearGradient id="SVGID_37_" gradientUnits="userSpaceOnUse" x1="10.905" y1="103.594" x2="382.831" y2="103.594"><stop offset="0" stop-color="#5A825C"/><stop offset=".048" stop-color="#5E875F"/><stop offset=".202" stop-color="#6A9467"/><stop offset=".354" stop-color="#719C6B"/><stop offset=".5" stop-color="#739E6D"/><stop offset=".646" stop-color="#719C6B"/><stop offset=".798" stop-color="#6A9467"/><stop offset=".952" stop-color="#5E875F"/><stop offset="1" stop-color="#5A825C"/></linearGradient><path class="st37" d="M382.8 104.6H10.9v-2h371.9v2z"/><linearGradient id="SVGID_38_" gradientUnits="userSpaceOnUse" x1="10.905" y1="107.651" x2="382.831" y2="107.651"><stop offset="0" stop-color="#5A825C"/><stop offset=".048" stop-color="#5E875F"/><stop offset=".202" stop-color="#6A9467"/><stop offset=".354" stop-color="#719C6B"/><stop offset=".5" stop-color="#739E6D"/><stop offset=".646" stop-color="#719C6B"/><stop offset=".798" stop-color="#6A9467"/><stop offset=".952" stop-color="#5E875F"/><stop offset="1" stop-color="#5A825C"/></linearGradient><path class="st38" d="M382.8 108.6H10.9v-1.9h371.9v1.9z"/><linearGradient id="SVGID_39_" gradientUnits="userSpaceOnUse" x1="10.905" y1="111.709" x2="382.831" y2="111.709"><stop offset="0" stop-color="#5A825C"/><stop offset=".048" stop-color="#5E875F"/><stop offset=".202" stop-color="#6A9467"/><stop offset=".354" stop-color="#719C6B"/><stop offset=".5" stop-color="#739E6D"/><stop offset=".646" stop-color="#719C6B"/><stop offset=".798" stop-color="#6A9467"/><stop offset=".952" stop-color="#5E875F"/><stop offset="1" stop-color="#5A825C"/></linearGradient><path class="st39" d="M382.8 112.7H10.9v-2h371.9v2z"/><linearGradient id="SVGID_40_" gradientUnits="userSpaceOnUse" x1="10.905" y1="115.762" x2="382.831" y2="115.762"><stop offset="0" stop-color="#5A825C"/><stop offset=".048" stop-color="#5E875F"/><stop offset=".202" stop-color="#6A9467"/><stop offset=".354" stop-color="#719C6B"/><stop offset=".5" stop-color="#739E6D"/><stop offset=".646" stop-color="#719C6B"/><stop offset=".798" stop-color="#6A9467"/><stop offset=".952" stop-color="#5E875F"/><stop offset="1" stop-color="#5A825C"/></linearGradient><path class="st40" d="M382.8 116.7H10.9v-1.9h371.9v1.9z"/><linearGradient id="SVGID_41_" gradientUnits="userSpaceOnUse" x1="10.905" y1="119.821" x2="382.831" y2="119.821"><stop offset="0" stop-color="#5A825C"/><stop offset=".048" stop-color="#5E875F"/><stop offset=".202" stop-color="#6A9467"/><stop offset=".354" stop-color="#719C6B"/><stop offset=".5" stop-color="#739E6D"/><stop offset=".646" stop-color="#719C6B"/><stop offset=".798" stop-color="#6A9467"/><stop offset=".952" stop-color="#5E875F"/><stop offset="1" stop-color="#5A825C"/></linearGradient><path class="st41" d="M382.8 120.8H10.9v-2h371.9v2z"/><linearGradient id="SVGID_42_" gradientUnits="userSpaceOnUse" x1="10.905" y1="123.874" x2="382.831" y2="123.874"><stop offset="0" stop-color="#5A825C"/><stop offset=".048" stop-color="#5E875F"/><stop offset=".202" stop-color="#6A9467"/><stop offset=".354" stop-color="#719C6B"/><stop offset=".5" stop-color="#739E6D"/><stop offset=".646" stop-color="#719C6B"/><stop offset=".798" stop-color="#6A9467"/><stop offset=".952" stop-color="#5E875F"/><stop offset="1" stop-color="#5A825C"/></linearGradient><path class="st42" d="M382.8 124.9H10.9v-2h371.9v2z"/><linearGradient id="SVGID_43_" gradientUnits="userSpaceOnUse" x1="10.905" y1="82.643" x2="382.831" y2="82.643"><stop offset="0" stop-color="#89BA80"/><stop offset=".051" stop-color="#83B37B"/><stop offset=".204" stop-color="#7BA873"/><stop offset=".354" stop-color="#75A16E"/><stop offset=".5" stop-color="#739E6D"/><stop offset=".645" stop-color="#75A16E"/><stop offset=".796" stop-color="#7BA873"/><stop offset=".949" stop-color="#83B37B"/><stop offset="1" stop-color="#89BA80"/></linearGradient><path class="st43" d="M382.8 83H10.9v-.7h371.9v.7z"/><linearGradient id="SVGID_44_" gradientUnits="userSpaceOnUse" x1="10.905" y1="86.637" x2="382.831" y2="86.637"><stop offset="0" stop-color="#89BA80"/><stop offset=".051" stop-color="#83B37B"/><stop offset=".204" stop-color="#7BA873"/><stop offset=".354" stop-color="#75A16E"/><stop offset=".5" stop-color="#739E6D"/><stop offset=".645" stop-color="#75A16E"/><stop offset=".796" stop-color="#7BA873"/><stop offset=".949" stop-color="#83B37B"/><stop offset="1" stop-color="#89BA80"/></linearGradient><path class="st44" d="M382.8 86.9H10.9v-.6h371.9v.6z"/><linearGradient id="SVGID_45_" gradientUnits="userSpaceOnUse" x1="10.905" y1="90.632" x2="382.831" y2="90.632"><stop offset="0" stop-color="#89BA80"/><stop offset=".051" stop-color="#83B37B"/><stop offset=".204" stop-color="#7BA873"/><stop offset=".354" stop-color="#75A16E"/><stop offset=".5" stop-color="#739E6D"/><stop offset=".645" stop-color="#75A16E"/><stop offset=".796" stop-color="#7BA873"/><stop offset=".949" stop-color="#83B37B"/><stop offset="1" stop-color="#89BA80"/></linearGradient><path class="st45" d="M382.8 90.9H10.9v-.6h371.9v.6z"/><linearGradient id="SVGID_46_" gradientUnits="userSpaceOnUse" x1="10.905" y1="94.626" x2="382.831" y2="94.626"><stop offset="0" stop-color="#89BA80"/><stop offset=".051" stop-color="#83B37B"/><stop offset=".204" stop-color="#7BA873"/><stop offset=".354" stop-color="#75A16E"/><stop offset=".5" stop-color="#739E6D"/><stop offset=".645" stop-color="#75A16E"/><stop offset=".796" stop-color="#7BA873"/><stop offset=".949" stop-color="#83B37B"/><stop offset="1" stop-color="#89BA80"/></linearGradient><path class="st46" d="M382.8 94.9H10.9v-.6h371.9v.6z"/><linearGradient id="SVGID_47_" gradientUnits="userSpaceOnUse" x1="10.905" y1="98.618" x2="382.831" y2="98.618"><stop offset="0" stop-color="#89BA80"/><stop offset=".051" stop-color="#83B37B"/><stop offset=".204" stop-color="#7BA873"/><stop offset=".354" stop-color="#75A16E"/><stop offset=".5" stop-color="#739E6D"/><stop offset=".645" stop-color="#75A16E"/><stop offset=".796" stop-color="#7BA873"/><stop offset=".949" stop-color="#83B37B"/><stop offset="1" stop-color="#89BA80"/></linearGradient><path class="st47" d="M382.8 98.9H10.9v-.6h371.9v.6z"/><linearGradient id="SVGID_48_" gradientUnits="userSpaceOnUse" x1="10.905" y1="102.612" x2="382.831" y2="102.612"><stop offset="0" stop-color="#89BA80"/><stop offset=".051" stop-color="#83B37B"/><stop offset=".204" stop-color="#7BA873"/><stop offset=".354" stop-color="#75A16E"/><stop offset=".5" stop-color="#739E6D"/><stop offset=".645" stop-color="#75A16E"/><stop offset=".796" stop-color="#7BA873"/><stop offset=".949" stop-color="#83B37B"/><stop offset="1" stop-color="#89BA80"/></linearGradient><path class="st48" d="M382.8 102.9H10.9v-.6h371.9v.6z"/><linearGradient id="SVGID_49_" gradientUnits="userSpaceOnUse" x1="10.905" y1="106.607" x2="382.831" y2="106.607"><stop offset="0" stop-color="#89BA80"/><stop offset=".051" stop-color="#83B37B"/><stop offset=".204" stop-color="#7BA873"/><stop offset=".354" stop-color="#75A16E"/><stop offset=".5" stop-color="#739E6D"/><stop offset=".645" stop-color="#75A16E"/><stop offset=".796" stop-color="#7BA873"/><stop offset=".949" stop-color="#83B37B"/><stop offset="1" stop-color="#89BA80"/></linearGradient><path class="st49" d="M382.8 106.9H10.9v-.6h371.9v.6z"/><linearGradient id="SVGID_50_" gradientUnits="userSpaceOnUse" x1="10.905" y1="110.601" x2="382.831" y2="110.601"><stop offset="0" stop-color="#89BA80"/><stop offset=".051" stop-color="#83B37B"/><stop offset=".204" stop-color="#7BA873"/><stop offset=".354" stop-color="#75A16E"/><stop offset=".5" stop-color="#739E6D"/><stop offset=".645" stop-color="#75A16E"/><stop offset=".796" stop-color="#7BA873"/><stop offset=".949" stop-color="#83B37B"/><stop offset="1" stop-color="#89BA80"/></linearGradient><path class="st50" d="M382.8 110.9H10.9v-.6h371.9v.6z"/><linearGradient id="SVGID_51_" gradientUnits="userSpaceOnUse" x1="10.905" y1="114.593" x2="382.831" y2="114.593"><stop offset="0" stop-color="#89BA80"/><stop offset=".051" stop-color="#83B37B"/><stop offset=".204" stop-color="#7BA873"/><stop offset=".354" stop-color="#75A16E"/><stop offset=".5" stop-color="#739E6D"/><stop offset=".645" stop-color="#75A16E"/><stop offset=".796" stop-color="#7BA873"/><stop offset=".949" stop-color="#83B37B"/><stop offset="1" stop-color="#89BA80"/></linearGradient><path class="st51" d="M382.8 114.9H10.9v-.6h371.9v.6z"/><linearGradient id="SVGID_52_" gradientUnits="userSpaceOnUse" x1="10.905" y1="118.59" x2="382.831" y2="118.59"><stop offset="0" stop-color="#89BA80"/><stop offset=".051" stop-color="#83B37B"/><stop offset=".204" stop-color="#7BA873"/><stop offset=".354" stop-color="#75A16E"/><stop offset=".5" stop-color="#739E6D"/><stop offset=".645" stop-color="#75A16E"/><stop offset=".796" stop-color="#7BA873"/><stop offset=".949" stop-color="#83B37B"/><stop offset="1" stop-color="#89BA80"/></linearGradient><path class="st52" d="M382.8 118.9H10.9v-.6h371.9v.6z"/><linearGradient id="SVGID_53_" gradientUnits="userSpaceOnUse" x1="10.905" y1="122.584" x2="382.831" y2="122.584"><stop offset="0" stop-color="#89BA80"/><stop offset=".051" stop-color="#83B37B"/><stop offset=".204" stop-color="#7BA873"/><stop offset=".354" stop-color="#75A16E"/><stop offset=".5" stop-color="#739E6D"/><stop offset=".645" stop-color="#75A16E"/><stop offset=".796" stop-color="#7BA873"/><stop offset=".949" stop-color="#83B37B"/><stop offset="1" stop-color="#89BA80"/></linearGradient><path class="st53" d="M382.8 122.9H10.9v-.6h371.9v.6z"/><linearGradient id="SVGID_54_" gradientUnits="userSpaceOnUse" x1="196.868" y1="82.331" x2="196.868" y2="10.767"><stop offset="0" stop-color="#378B5F"/><stop offset=".885" stop-color="#087849"/><stop offset="1" stop-color="#007647"/></linearGradient><path class="st54" d="M33.3 10.8L10.9 82.3h371.9l-22.4-71.5z"/><linearGradient id="SVGID_55_" gradientUnits="userSpaceOnUse" x1="196.938" y1="14.033" x2="196.938" y2="78.177"><stop offset="0" stop-color="#6C9566"/><stop offset=".002" stop-color="#6C9667"/><stop offset=".126" stop-color="#85A87D"/><stop offset=".265" stop-color="#99B890"/><stop offset=".426" stop-color="#A9C49F"/><stop offset=".628" stop-color="#B2CBA8"/><stop offset="1" stop-color="#B5CEAB"/></linearGradient><path class="st55" d="M338.5 78.2c-3.5-17.3 29.9-17.6 29.9-17.6l-9.5-31.7s-28.7.8-35.8-14.8H70.7C63.6 29.7 35 28.9 35 28.9l-9.5 31.7s33.4.2 29.9 17.6h283.1z"/><path class="st56" d="M335.4 76.7c-1.8-16.2 29.8-17.3 29.8-17.3l-8.6-29.2s-27.5 0-35.5-14.8H72.8c-8 14.8-35.5 14.8-35.5 14.8l-8.6 29.2s31.6 1.1 29.8 17.3h276.9z"/><linearGradient id="SVGID_56_" gradientUnits="userSpaceOnUse" x1="196.938" y1="16.049" x2="196.938" y2="75.678"><stop offset="0" stop-color="#6C9566"/><stop offset=".002" stop-color="#6C9667"/><stop offset=".126" stop-color="#85A87D"/><stop offset=".265" stop-color="#99B890"/><stop offset=".426" stop-color="#A9C49F"/><stop offset=".628" stop-color="#B2CBA8"/><stop offset="1" stop-color="#B5CEAB"/></linearGradient><path class="st57" d="M333.4 75.7c-.5-15.8 29.7-17.2 29.7-17.2L355 30.9s-25.7.1-35.3-14.8H74.1C64.6 31 38.8 30.9 38.8 30.9l-8.1 27.7S60.9 60 60.3 75.8h273.1z"/><path class="st58" d="M34 70.5l.6-2s4 .3 7.3 1.5l.6-2.2c-3.2-1-7.4-1.1-7.4-1.1l.2-.6h-2.9l-.2.6s-8.7.1-9.4 3.2c-.5 2.2 7.7 2.7 7.7 2.7l-.7 2.5s-4.2-.2-7.8-1.5l-.6 2.1s4.6 1.2 8 1.1l-.4 1.3h3l.4-1.3s8.5 0 9.6-3c.8-2.6-8-3.3-8-3.3zm-2.9-.3s-2.6-.2-2.6-1c0-.6 2.1-.9 3.1-.9l-.5 1.9zm1.6 4.9l.6-2.2s2.8.3 2.7 1.2c-.1.9-3.3 1-3.3 1z"/><path class="st59" d="M48.8 17.7l.5-1.7s3.5.2 6.7 1.2l.5-1.8c-3.2-.8-6.7-.9-6.7-.9l.2-.5h-2.7l-.3.6s-7.9.1-8.5 2.6c-.4 1.8 7.1 2.3 7.1 2.3l-.6 2.1s-3.4-.1-7.2-1.2l-.5 1.8s3.8.9 7.3.9l-.3 1.1H47l.3-1.1s7.8-.1 8.7-2.5c.8-2.2-7.2-2.9-7.2-2.9zm-2.6-.2s-2.4-.2-2.4-.8c0-.5 1.8-.7 2.8-.7l-.4 1.5zm1.5 4.1l.5-1.8s2.7.3 2.5 1c-.3.7-3 .8-3 .8z"/><path class="st58" d="M362.5 70.5l-.6-2s4.2.3 8.1 1.5l-.6-2.2c-3.7-1-8-1.1-8-1.1l-.2-.6h-2.9l.2.6s-8.6.1-7.6 3.2c.7 2.2 9.3 2.7 9.3 2.7l.7 2.5s-4.3-.2-8.6-1.5l.6 2.1s5.2 1.2 8.6 1.1l.4 1.3h3l-.4-1.3s8.5 0 7.9-3c-.7-2.6-9.9-3.3-9.9-3.3zm-3-.3s-2.7-.2-3.1-1c-.3-.6 1.6-.9 2.6-.9l.5 1.9zm4.3 4.9l-.6-2.2s3 .3 3.4 1.2c.4.9-2.8 1-2.8 1z"/><path class="st59" d="M348 17.7l-.5-1.7s4.1.3 7.4 1.2l-.5-1.8c-3.1-.8-7.3-.9-7.3-.9l-.1-.5h-2.7l.1.5s-7.5.1-7.1 2.4c.3 2 8.5 2.5 8.5 2.5l.6 2.1s-3.6-.1-7.8-1.2l.5 1.8s4.1.8 7.8.9l.3 1.1h2.7l-.3-1.1s7.8 0 7.3-2.5c-.6-2.2-8.9-2.8-8.9-2.8zm-2.8-.2s-2.4-.1-2.8-.8c-.3-.5 1.6-.7 2.4-.7l.4 1.5zm3.8 4l-.5-1.8s2.7.3 3 1c.4.8-2.5.8-2.5.8z"/><path class="st56" d="M113.1 43.9c.1 2.1-3.3 4-7.6 4.2-4.3.2-7.9-1.3-8-3.4-.1-2.1 3.3-4 7.6-4.2 4.3-.2 7.9 1.3 8 3.4zm191 2.7l4.6-.9-4.2-1.5 3.7-1.5-4.9-.9 2.4-2-5-.1.9-2.3-4.7.6-.6-2.4-3.9 1.3-2.1-2.2-2.8 1.9-3.4-1.9-1.4 2.2-4.3-1.3.1 2.4-4.9-.6 1.7 2.3-5 .1 3 2-4.6.8 4.1 1.5-3.8 1.5 4.8.9-2.5 2.1 5.1.1-1.1 2.4 4.8-.7.6 2.5 4.1-1.4L287 54l2.9-2 3.5 2 1.4-2.4 4.5 1.4-.2-2.5 5 .7-1.8-2.4 5-.1-3.2-2.1zm-15.8 3.3c-6.4-.3-11.4-3.1-11.2-6.1.1-3.1 5.4-5.3 11.8-5 6.4.3 11.4 3.1 11.2 6.1-.1 3.1-5.4 5.3-11.8 5z"/><path class="st56" d="M298.4 44.8c-.1 2.6-4.6 4.5-9.9 4.2-5.4-.3-9.6-2.6-9.5-5.2.1-2.6 4.6-4.5 9.9-4.2 5.4.3 9.6 2.6 9.5 5.2z"/><linearGradient id="SVGID_57_" gradientUnits="userSpaceOnUse" x1="196.938" y1="72.602" x2="196.938" y2="18.548"><stop offset="0" stop-color="#528B66"/><stop offset=".003" stop-color="#528B66"/><stop offset=".223" stop-color="#327F54"/><stop offset=".414" stop-color="#12784A"/><stop offset=".552" stop-color="#007647"/></linearGradient><path class="st60" d="M242.4 45.6c0 14.9-20.3 27-45.4 27-25.1 0-45.4-12.1-45.4-27s20.3-27 45.4-27c25-.1 45.4 12 45.4 27z"/><linearGradient id="SVGID_58_" gradientUnits="userSpaceOnUse" x1="196.936" y1="70.685" x2="196.936" y2="20.23"><stop offset="0" stop-color="#A1C38B"/><stop offset="1" stop-color="#5CA546"/></linearGradient><path class="st61" d="M238.7 45.5c0 13.9-18.7 25.2-41.7 25.2-23 0-41.7-11.3-41.7-25.2 0-13.9 18.7-25.2 41.7-25.2 23-.1 41.7 11.2 41.7 25.2z"/><path class="st62" d="M236.3 45.3c0 13.2-17.6 23.9-39.4 23.9-21.8 0-39.4-10.7-39.4-23.9s17.7-23.9 39.4-23.9c21.8 0 39.4 10.7 39.4 23.9z"/><linearGradient id="SVGID_59_" gradientUnits="userSpaceOnUse" x1="196.938" y1="68.415" x2="196.938" y2="22.062"><stop offset="0" stop-color="#A1C38B"/><stop offset="1" stop-color="#5CA546"/></linearGradient><path class="st63" d="M235 45.2c0 12.8-17 23.2-38 23.2S159 58 159 45.2c0-12.8 17-23.2 38-23.2 20.9.1 38 10.4 38 23.2z"/><path class="st56" d="M121 44.3l4.1-1.5-4.6-.8 3-2-5-.1 1.7-2.3-4.9.6.1-2.4-4.3 1.3-1.4-2.2-3.4 1.9-2.8-1.9-2.1 2.2-3.9-1.3-.6 2.4-4.7-.6.9 2.3-5 .1 2.4 2-4.9.8 3.6 1.5-4.2 1.5 4.6.9-3.2 2.1 5 .1-1.8 2.4 5-.7-.3 2.5 4.5-1.4 1.4 2.4 3.5-2 2.9 2 2.1-2.4 4 1.4.6-2.5 4.8.7-1-2.4 5.1-.1-2.5-2.1 4.8-.9-3.5-1.5zm-15.4 6.1c-6.9.4-12.6-2.1-12.8-5.4-.2-3.3 5.3-6.3 12.2-6.7 6.9-.4 12.6 2.1 12.8 5.4.1 3.4-5.4 6.4-12.2 6.7z"/><path class="st64" d="M216.9 48.8c.4-6.3-17.2-8.3-17.2-8.3v-4.9s6.7.5 15 3.6l-.1-5.3c-6.9-2.4-14.8-2.7-14.8-2.7v-1.5H194v1.5s-15.8.3-16.6 7.1c-.7 6 16.5 7.5 16.5 7.5l-.1 6.2s-8.5-.5-16.1-3.7l-.2 5.4s7.3 2.3 16.2 2.9V60h5.9v-3.4c0-.2 16.8-.6 17.3-7.8zm-23-9.1s-5.5-.6-5.5-2.4c0-1.8 4.6-2.1 5.5-2.1v4.5zm5.7 12.2v-5.5s5.7.9 6 2.9c.3 2.2-6 2.6-6 2.6z"/></svg>