<?xml version="1.0" encoding="utf-8"?>
<!-- Generator: Adobe Illustrator 19.2.0, SVG Export Plug-In . SVG Version: 6.00 Build 0)  -->
<svg version="1.1" id="Layer_1" xmlns="http://www.w3.org/2000/svg" xmlns:xlink="http://www.w3.org/1999/xlink" x="0px" y="0px"
	 viewBox="0 0 100 100" style="enable-background:new 0 0 100 100;" xml:space="preserve">
<style type="text/css">
	.st0{fill:#808080;}
	.st1{fill:#333333;}
	.st2{fill:#666666;}
	.st3{fill:#B3B3B3;}
	.st4{fill:#8EC3D7;}
	.st5{fill:#2D5872;}
	.st6{fill:#46A7C4;}
</style>
<g>
	<polygon class="st0" points="61.8,95.8 36.8,95.8 39.6,76.8 59,76.8 	"/>
	<path class="st1" d="M98.7,72H1.1V17.6c0-3.3,2.7-5.9,5.9-5.9h85.8c3.3,0,5.9,2.7,5.9,5.9V72z"/>
	<polygon class="st2" points="60.1,85 59,77 39.6,77 38.4,85 	"/>
	<path class="st3" d="M90.3,83.4H9.5c-4.7,0-8.4-3.8-8.4-8.4v-3h97.6v3C98.7,79.6,94.9,83.4,90.3,83.4z"/>
	<circle class="st1" cx="49.4" cy="77.7" r="2.6"/>
	<path class="st3" d="M63.7,98.1H34.9c-0.7,0-1.2-0.5-1.2-1.2l0,0c0-0.7,0.5-1.2,1.2-1.2h28.7c0.7,0,1.2,0.5,1.2,1.2l0,0
		C64.8,97.6,64.3,98.1,63.7,98.1z"/>
	<rect x="6.2" y="17.3" class="st4" width="86.8" height="49.4"/>
	<polygon class="st5" points="70.7,53.7 49.9,40.9 29.8,47.9 16.9,35 17.9,33.9 30.2,46.2 50.1,39.2 70.5,51.8 81.8,41 82.9,42.1 	
		"/>
	<circle class="st6" cx="17.4" cy="34.5" r="3"/>
	<circle class="st6" cx="30" cy="47.1" r="3"/>
	<circle class="st6" cx="50" cy="40.1" r="3"/>
	<circle class="st6" cx="70.6" cy="52.7" r="3"/>
	<circle class="st6" cx="82.4" cy="41.5" r="3"/>
</g>
</svg>
